<svg xmlns="http://www.w3.org/2000/svg" width="24" height="24" viewBox="0 0 24 24">
  <path id="brightness_4_FILL0_wght400_GRAD0_opsz48" d="M10.8,23.572H7.277A1.674,1.674,0,0,1,5.6,21.888V18.351L3.026,15.769a1.7,1.7,0,0,1,0-2.358L5.6,10.829V7.292A1.674,1.674,0,0,1,7.277,5.608H10.8l2.573-2.582a1.462,1.462,0,0,1,1.175-.477,1.8,1.8,0,0,1,1.2.505L18.3,5.608h3.524A1.674,1.674,0,0,1,23.5,7.292v3.537l2.573,2.582a1.7,1.7,0,0,1,0,2.358L23.5,18.351v3.537a1.674,1.674,0,0,1-1.678,1.684H18.3l-2.517,2.5a1.755,1.755,0,0,1-2.406,0ZM14.578,14.562Zm0,10.329,3.021-3h4.224V17.65l3.049-3.059-3.049-3.059V7.292H17.6L14.578,4.233,11.5,7.292H7.277v4.238L4.228,14.59,7.277,17.65v4.238h4.2Zm.28-4.884a5.405,5.405,0,0,0,5.427-5.417,5.183,5.183,0,0,0-1.58-3.817A5.249,5.249,0,0,0,14.858,9.2a4.365,4.365,0,0,0-.643.042q-.28.042-.531.1a.615.615,0,0,0-.238.168.374.374,0,0,0-.1.253,2.028,2.028,0,0,0,.252.449,4.867,4.867,0,0,1,1.636,1.895,5.727,5.727,0,0,1-.014,5.024A4.764,4.764,0,0,1,13.571,19a1.268,1.268,0,0,0-.252.421.4.4,0,0,0,.112.267.669.669,0,0,0,.252.182,5.2,5.2,0,0,0,.643.112q.28.028.531.028Z" transform="translate(-2.55 -2.547)" fill="#eba222"/>
</svg>
