<svg xmlns="http://www.w3.org/2000/svg" width="24" height="24" viewBox="0 0 24 24">
  <path id="group_FILL0_wght400_GRAD0_opsz48" d="M2.714,32.95a.69.69,0,0,1-.584-.329,1.412,1.412,0,0,1-.231-.831V29.317a5.986,5.986,0,0,1,.489-2.454,3.568,3.568,0,0,1,1.357-1.643,17.717,17.717,0,0,1,3.57-1.778,10.077,10.077,0,0,1,3.271-.541,9.956,9.956,0,0,1,3.258.541A17.885,17.885,0,0,1,17.4,25.221a3.647,3.647,0,0,1,1.371,1.643,5.847,5.847,0,0,1,.5,2.454v2.473a1.412,1.412,0,0,1-.231.831.69.69,0,0,1-.584.329Zm17.593,0a.714.714,0,0,0,.434-.406,1.866,1.866,0,0,0,.163-.831v-2.4a8.183,8.183,0,0,0-.869-4,7.316,7.316,0,0,0-2.281-2.531,19.868,19.868,0,0,1,3.529.908,10.367,10.367,0,0,1,2.688,1.372,5.217,5.217,0,0,1,1.412,1.816,5.588,5.588,0,0,1,.516,2.435v2.473a1.412,1.412,0,0,1-.231.831.69.69,0,0,1-.584.329ZM10.588,20.544a3.45,3.45,0,0,1-2.932-1.623,7.1,7.1,0,0,1-1.14-4.174,7.1,7.1,0,0,1,1.14-4.174,3.46,3.46,0,0,1,5.864,0,7.1,7.1,0,0,1,1.14,4.174,7.1,7.1,0,0,1-1.14,4.174A3.45,3.45,0,0,1,10.588,20.544Zm9.774-5.8a7.1,7.1,0,0,1-1.14,4.174,3.45,3.45,0,0,1-2.932,1.623,4.292,4.292,0,0,1-.665-.058,2.176,2.176,0,0,1-.665-.213A7.255,7.255,0,0,0,15.95,17.9a13.486,13.486,0,0,0,.339-3.15,12.515,12.515,0,0,0-.339-3.072,9.533,9.533,0,0,0-.991-2.454,4.281,4.281,0,0,1,.665-.193,3.25,3.25,0,0,1,.665-.077,3.45,3.45,0,0,1,2.932,1.623,7.1,7.1,0,0,1,1.14,4.174ZM3.529,30.631H17.647V29.317a2.918,2.918,0,0,0-.258-1.2,1.737,1.737,0,0,0-.638-.812,15.136,15.136,0,0,0-3.285-1.662,9.4,9.4,0,0,0-2.878-.425,9.536,9.536,0,0,0-2.891.425,14.987,14.987,0,0,0-3.3,1.662,1.666,1.666,0,0,0-.624.812,3.056,3.056,0,0,0-.244,1.2Zm7.059-12.406a2.071,2.071,0,0,0,1.751-.986,4.235,4.235,0,0,0,.692-2.493,4.235,4.235,0,0,0-.692-2.493,2.049,2.049,0,0,0-3.5,0,4.235,4.235,0,0,0-.692,2.493,4.235,4.235,0,0,0,.692,2.493A2.071,2.071,0,0,0,10.588,18.225ZM10.588,14.747ZM10.588,25.221Z" transform="translate(-1.9 -8.95)" fill="#eba222"/>
</svg>
