<svg xmlns="http://www.w3.org/2000/svg" width="24" height="24" viewBox="0 0 24 24">
  <path id="insights_FILL0_wght400_GRAD0_opsz48" d="M3.909,30.15a1.665,1.665,0,0,1-1.35-.716,2.954,2.954,0,0,1,0-3.459,1.665,1.665,0,0,1,1.35-.716,2.144,2.144,0,0,1,.273.017,2.1,2.1,0,0,1,.355.087l5.455-6.987a4.179,4.179,0,0,1-.068-.454q-.014-.175-.014-.349a2.725,2.725,0,0,1,.559-1.729,1.63,1.63,0,0,1,2.7,0,2.725,2.725,0,0,1,.559,1.729q0,.07-.082.8l3,3.843A2.1,2.1,0,0,1,17,22.133a2.138,2.138,0,0,1,.545,0,2.1,2.1,0,0,1,.355.087l4.364-5.59a4.179,4.179,0,0,1-.068-.454q-.014-.175-.014-.349a2.725,2.725,0,0,1,.559-1.729,1.63,1.63,0,0,1,2.7,0,2.954,2.954,0,0,1,0,3.459,1.665,1.665,0,0,1-1.35.716,2.145,2.145,0,0,1-.273-.017,2.1,2.1,0,0,1-.355-.087L19.1,23.757a4.178,4.178,0,0,1,.068.454q.014.175.014.349a2.725,2.725,0,0,1-.559,1.729,1.63,1.63,0,0,1-2.7,0,2.725,2.725,0,0,1-.559-1.729q0-.175.014-.349a4.178,4.178,0,0,1,.068-.454l-3-3.843a2.1,2.1,0,0,1-.355.087,2.144,2.144,0,0,1-.273.017q-.055,0-.627-.1L5.736,26.9a4.178,4.178,0,0,1,.068.454q.014.175.014.349a2.725,2.725,0,0,1-.559,1.729A1.665,1.665,0,0,1,3.909,30.15ZM5.273,14.709l-.545-1.537-1.2-.7,1.2-.7.545-1.537.545,1.537,1.2.7-1.2.7Zm12-1.782-.845-2.306-1.8-1.083,1.8-1.083.845-2.306.845,2.306,1.8,1.083-1.8,1.083Z" transform="translate(-2 -6.15)" fill="#eba222"/>
</svg>
