<svg xmlns="http://www.w3.org/2000/svg" width="24" height="24" viewBox="0 0 24 24">
  <path id="reviews_FILL0_wght400_GRAD0_opsz48" d="M15.58,18.974a.452.452,0,0,0,.84,0L17.68,15.9l2.91-1.33a.5.5,0,0,0,0-.886l-2.91-1.33L16.42,9.287a.452.452,0,0,0-.84,0l-1.26,3.071-2.91,1.33a.5.5,0,0,0,0,.886l2.91,1.33ZM4,27.047V5.9a1.89,1.89,0,0,1,.54-1.314A1.665,1.665,0,0,1,5.8,4H26.2a1.682,1.682,0,0,1,1.245.586A1.864,1.864,0,0,1,28,5.9V22.361a1.864,1.864,0,0,1-.555,1.314,1.682,1.682,0,0,1-1.245.586H8.8L5.53,27.711a.8.8,0,0,1-.975.206A.868.868,0,0,1,4,27.047Zm1.8-2.311,2.25-2.374H26.2V5.9H5.8ZM5.8,5.9v0Z" transform="translate(-4 -4)" fill="#eba222"/>
</svg>
